HIERARCHY
ROOT Hips
{
	OFFSET 0.000000 0.000000 0.000000 
	CHANNELS 6 Xposition Yposition Zposition Xrotation Yrotation Zrotation
	JOINT Spine
	{
		OFFSET 0.000000 1.722820 2.584230 
		CHANNELS 3 Xrotation Yrotation Zrotation
		JOINT Spine1
		{
			OFFSET 0.000000 0.598330 3.393290 
			CHANNELS 3 Xrotation Yrotation Zrotation
			JOINT Spine2
			{
				OFFSET 0.000000 0.300310 3.432520 
				CHANNELS 3 Xrotation Yrotation Zrotation
				JOINT Spine3
				{
					OFFSET 0.000000 0.000000 3.445640 
					CHANNELS 3 Xrotation Yrotation Zrotation
					JOINT Neck
					{
						OFFSET 0.000000 -1.292100 9.044790 
						CHANNELS 3 Xrotation Yrotation Zrotation
						JOINT Head
						{
							OFFSET 0.000000 -0.822700 4.665770 
							CHANNELS 3 Xrotation Yrotation Zrotation
							End Site
							{
								OFFSET 0.000000 0.000010 5.577620 
							}
						}
					}
					JOINT RightShoulder
					{
						OFFSET -1.175120 -1.958530 6.345670 
						CHANNELS 3 Xrotation Yrotation Zrotation
						JOINT RightArm
						{
							OFFSET -5.836450 0.000000 0.000000 
							CHANNELS 3 Xrotation Yrotation Zrotation
							JOINT RightForeArm
							{
								OFFSET -10.886420 0.000000 0.000000 
								CHANNELS 3 Xrotation Yrotation Zrotation
								JOINT RightHand
								{
									OFFSET -10.194950 0.000000 0.000000 
									CHANNELS 3 Xrotation Yrotation Zrotation
									JOINT RightHandEnd
									{
										OFFSET -2.735920 0.000000 0.000000 
										CHANNELS 3 Xrotation Yrotation Zrotation
										End Site
										{
											OFFSET -2.735920 0.000000 0.000000 
										}
									}
									JOINT RightHandThumb1
									{
										OFFSET -1.094370 -1.823950 -0.729580 
										CHANNELS 3 Yrotation Xrotation Zrotation
										End Site
										{
											OFFSET -2.642700 -0.708110 0.000000 
										}
									}
								}
							}
						}
					}
					JOINT LeftShoulder
					{
						OFFSET 1.175120 -1.958530 6.345670 
						CHANNELS 3 Xrotation Yrotation Zrotation
						JOINT LeftArm
						{
							OFFSET 5.836450 0.000000 0.000000 
							CHANNELS 3 Xrotation Yrotation Zrotation
							JOINT LeftForeArm
							{
								OFFSET 10.886420 0.000000 0.000000 
								CHANNELS 3 Xrotation Yrotation Zrotation
								JOINT LeftHand
								{
									OFFSET 10.194950 0.000000 0.000000 
									CHANNELS 3 Xrotation Yrotation Zrotation
									JOINT LeftHandEnd
									{
										OFFSET 2.735920 0.000000 0.000000 
										CHANNELS 3 Xrotation Yrotation Zrotation
										End Site
										{
											OFFSET 2.735920 0.000000 0.000000 
										}
									}
									JOINT LeftHandThumb1
									{
										OFFSET 1.094370 -1.823950 -0.729580 
										CHANNELS 3 Yrotation Xrotation Zrotation
										End Site
										{
											OFFSET 2.642700 -0.708110 0.000000 
										}
									}
								}
							}
						}
					}
				}
			}
		}
	}
	JOINT RightUpLeg
	{
		OFFSET -3.486200 0.000000 -1.018440 
		CHANNELS 3 Xrotation Yrotation Zrotation
		JOINT RightLeg
		{
			OFFSET 0.000010 0.000000 -16.688210 
			CHANNELS 3 Xrotation Yrotation Zrotation
			JOINT RightFoot
			{
				OFFSET 0.000010 0.000000 -16.775360 
				CHANNELS 3 Xrotation Yrotation Zrotation
				JOINT RightToeBase
				{
					OFFSET 0.000000 -4.945160 -1.799890 
					CHANNELS 3 Xrotation Yrotation Zrotation
					End Site
					{
						OFFSET 0.000000 -2.820300 -0.000000 
					}
				}
			}
		}
	}
	JOINT LeftUpLeg
	{
		OFFSET 3.486200 0.000000 -1.018440 
		CHANNELS 3 Xrotation Yrotation Zrotation
		JOINT LeftLeg
		{
			OFFSET 0.000010 0.000000 -16.688210 
			CHANNELS 3 Xrotation Yrotation Zrotation
			JOINT LeftFoot
			{
				OFFSET 0.000010 0.000000 -16.775360 
				CHANNELS 3 Xrotation Yrotation Zrotation
				JOINT LeftToeBase
				{
					OFFSET 0.000000 -4.945160 -1.799890 
					CHANNELS 3 Xrotation Yrotation Zrotation
					End Site
					{
						OFFSET 0.000000 -2.820300 -0.000000 
					}
				}
			}
		}
	}
}
MOTION
Frames: 4
Frame Time: 0.008333
-5.760600 36.799400 36.665298 -89.880600 3.097400 -1.186200 2.603500 -2.017200 -0.313200 1.766300 0.166800 -0.009900 0.844200 -1.848300 -0.854400 -1.158000 -0.900900 -0.009600 -4.022900 -1.251900 -0.601300 -1.400000 1.272000 -1.766600 2.573300 -2.356300 -5.450300 -44.465302 -26.154600 -31.871300 0.000000 0.000000 19.276100 -53.027000 -10.647500 -6.863100 0.000000 0.000000 -0.000000 0.000000 -0.000000 -0.000000 3.799000 2.979500 4.776400 -53.905499 15.444600 41.659401 -0.000000 -0.000000 -31.259001 -51.231300 12.465900 1.300200 0.000000 0.000000 -0.000000 -0.000000 -0.000000 -0.000000 -7.736800 -0.710500 -18.968100 19.252600 0.000000 0.000000 -9.631000 -0.564500 -1.019700 2.489900 0.000000 0.000000 -7.192400 -13.459200 5.190000 45.261501 0.000000 0.000000 -7.484100 9.697000 -9.214000 -8.970300 0.000000 -0.000000 
-5.694400 36.805401 36.546398 -89.820999 3.088900 -1.297400 2.723700 -1.967000 -0.319400 1.845600 0.151200 -0.001100 0.466800 -1.760500 -0.652500 -1.199600 -0.891900 0.009600 -3.415600 -1.221300 -0.527500 -1.549600 1.166000 -1.897100 2.340100 -1.435400 -6.115800 -46.142200 -23.420799 -33.803398 0.000000 0.000000 20.111700 -54.402699 -10.369300 -6.080100 -0.000000 -0.000000 -0.000000 0.000000 -0.000000 -0.000000 3.706100 1.888700 5.894000 -53.864201 13.554100 42.276001 -0.000000 -0.000000 -31.921101 -50.853600 11.769200 0.725400 0.000000 -0.000000 0.000000 -0.000000 0.000000 -0.000000 -8.088300 -0.592200 -18.796400 19.392500 0.000000 0.000000 -9.412900 -0.597500 -1.051300 2.764500 0.000000 0.000000 -6.425800 -13.280200 5.039100 44.046799 0.000000 0.000000 -7.628000 9.558500 -9.703500 -9.563800 0.000000 -0.000000 
-5.626900 36.813000 36.421101 -89.769798 3.055900 -1.356400 2.858700 -1.859400 -0.319300 1.931600 0.162600 0.010100 0.044000 -1.722900 -0.495200 -1.228700 -0.892100 0.036700 -2.710400 -1.211400 -0.461000 -1.724400 1.071100 -1.984300 2.096100 -0.469300 -6.767100 -47.600498 -20.693600 -35.449200 0.000000 0.000000 21.024099 -55.364601 -10.197500 -5.289600 0.000000 -0.000000 0.000000 -0.000000 0.000000 0.000000 3.610000 0.699900 6.973000 -53.534599 12.041400 42.711601 -0.000000 -0.000000 -32.906502 -50.797401 9.796900 0.100200 -0.000000 -0.000000 0.000000 0.000000 -0.000000 0.000000 -8.432700 -0.445500 -18.656799 19.518801 0.000000 0.000000 -9.183400 -0.629300 -1.097900 3.038400 0.000000 0.000000 -5.696800 -13.061700 4.792200 42.734699 0.000000 0.000000 -7.745800 9.682500 -10.147700 -10.269800 0.000000 -0.000000 
-5.556100 36.822899 36.288300 -89.723099 2.993400 -1.370300 2.977400 -1.725100 -0.309300 1.995200 0.170600 0.020700 -0.338900 -1.693600 -0.337300 -1.227400 -0.861800 0.076000 -2.002400 -1.225700 -0.433200 -1.901900 0.980200 -2.082300 1.822800 0.563000 -7.468000 -49.066002 -17.938700 -36.961498 0.000000 0.000000 22.156500 -55.658600 -10.167100 -4.782900 -0.000000 -0.000000 -0.000000 -0.000000 -0.000000 0.000000 3.485000 -0.594500 7.997400 -53.225101 10.676800 43.032001 -0.000000 -0.000000 -33.979900 -50.618599 8.169300 -0.410100 -0.000000 0.000000 -0.000000 -0.000000 0.000000 -0.000000 -8.774200 -0.261300 -18.551001 19.626400 0.000000 0.000000 -8.932500 -0.668000 -1.145000 3.296800 0.000000 0.000000 -5.016700 -12.776800 4.534300 41.382500 0.000000 0.000000 -7.875500 9.907500 -10.325700 -11.010600 0.000000 -0.000000 
